<svg width="347" height="249" viewBox="0 0 347 249" fill="none" xmlns="http://www.w3.org/2000/svg">
<g clip-path="url(#clip0_2605_13886)">
<path d="M98.4671 162.245L101.319 169.019L108.583 167.159L105.732 160.385L98.4671 162.245ZM95.095 160.606L107.203 157.506L111.955 168.798L99.8477 171.897L95.095 160.606Z" fill="#374FFA"/>
<path d="M229.442 56.0439L231.438 60.7862L236.523 59.4842L234.527 54.7419L229.442 56.0439ZM227.081 54.8971L235.557 52.7272L238.884 60.631L230.408 62.8009L227.081 54.8971Z" fill="#FFC605"/>
<path d="M39.3444 58.8219L48.9087 56.1795L51.6618 64.3496L61.2262 61.7072L63.9792 69.8773L73.5436 67.2348L76.2967 75.405L85.861 72.7625L88.6141 80.9326" stroke="#BD5BE4" stroke-width="3.2"/>
<path d="M304.706 62.3894L300.228 69.6971L291.439 66.2964L286.96 73.6041L278.171 70.2033L273.693 77.5111L264.904 74.1103L260.425 81.4181L251.636 78.0173" stroke="#1DE9B7" stroke-width="3.2"/>
<path d="M119.318 63.9692C121.68 63.9692 123.593 62.3364 123.593 60.3204C123.593 58.3045 121.68 56.6716 119.318 56.6716C116.956 56.6716 115.043 58.3045 115.043 60.3204C115.043 62.3364 116.956 63.9692 119.318 63.9692Z" stroke="#1AC8C3" stroke-width="1.6"/>
<path d="M119.318 63.9692C121.68 63.9692 123.593 62.3364 123.593 60.3204C123.593 58.3045 121.68 56.6716 119.318 56.6716C116.956 56.6716 115.043 58.3045 115.043 60.3204C115.043 62.3364 116.956 63.9692 119.318 63.9692Z" stroke="#1AC8C3" stroke-width="1.6"/>
<path d="M230.758 150.184C233.71 150.184 236.101 148.143 236.101 145.623C236.101 143.103 233.71 141.062 230.758 141.062C227.805 141.062 225.414 143.103 225.414 145.623C225.414 148.143 227.805 150.184 230.758 150.184Z" stroke="#1AC8C3" stroke-width="2"/>
<path d="M80.796 128.82C82.5673 128.82 84.0021 127.595 84.0021 126.083C84.0021 124.571 82.5673 123.347 80.796 123.347C79.0246 123.347 77.5898 124.571 77.5898 126.083C77.5898 127.595 79.0246 128.82 80.796 128.82Z" stroke="#1AC8C3" stroke-width="1.2"/>
<path d="M273.789 98.9521L280.401 104.596L273.789 110.24L267.177 104.596L273.789 98.9521Z" fill="#FFC605"/>
<path d="M51.209 154.31L57.1088 157.05L53.9536 162.039L48.0538 159.3L51.209 154.31Z" fill="#FF593E"/>
<path d="M297.824 122.836L303.724 125.576L300.569 130.565L294.669 127.826L297.824 122.836Z" fill="#FF593E"/>
<path d="M194.754 60.0389L188.56 61.5909L186.385 56.0001L192.579 54.4481L194.754 60.0389Z" fill="#FF593E"/>
<path d="M159.887 167.33C162.465 167.33 164.562 165.54 164.562 163.339C164.562 161.139 162.465 159.349 159.887 159.349C157.308 159.349 155.211 161.139 155.211 163.339C155.211 165.54 157.308 167.33 159.887 167.33Z" fill="#FFC605"/>
<path d="M240.436 93.7288C242.775 93.7288 244.677 92.1051 244.677 90.1091C244.677 88.1131 242.775 86.4894 240.436 86.4894C238.098 86.4894 236.195 88.1131 236.195 90.1091C236.195 92.1051 238.098 93.7288 240.436 93.7288Z" fill="#BE5CE5"/>
<path d="M259.71 140.264C261.337 140.264 262.66 139.134 262.66 137.745C262.66 136.357 261.337 135.227 259.71 135.227C258.083 135.227 256.76 136.357 256.76 137.745C256.76 139.134 258.083 140.264 259.71 140.264Z" fill="#BE5CE5"/>
<path d="M292.312 147.808L303.72 153.518L292.312 147.808Z" fill="#626262"/>
<path d="M292.312 147.808L303.72 153.518" stroke="#2F48FA" stroke-width="4.03733"/>
<path d="M154.922 41.554L158.383 52.8079L154.922 41.554Z" fill="#626262"/>
<path d="M154.922 41.554L158.383 52.8079" stroke="#2F48FA" stroke-width="4.03733"/>
<path d="M200.402 152.055L209.799 179.699L200.402 152.055Z" fill="#626262"/>
<path d="M200.402 152.055L209.799 179.699" stroke="#FF816D" stroke-width="4.03733"/>
<path d="M65.3379 99.7278L99.3443 102.145L65.3379 99.7278Z" fill="#626262"/>
<path d="M65.3379 99.7278L99.3443 102.145" stroke="#FFC705" stroke-width="6.05599"/>
</g>
<path d="M167.849 91.3808C167.679 91.5515 167.549 91.7573 167.441 91.9828L167.429 91.9706L150.334 130.48L150.351 130.496C150.034 131.111 150.564 132.36 151.651 133.449C152.738 134.535 153.987 135.066 154.602 134.749L154.617 134.764L193.126 117.668L193.114 117.654C193.338 117.547 193.543 117.418 193.716 117.244C196.096 114.863 192.236 107.143 185.095 100.001C177.951 92.8592 170.232 89.0001 167.849 91.3808Z" fill="#29D7B4"/>
<path d="M169.944 98.2577L150.764 129.512L150.334 130.48L150.351 130.496C150.034 131.111 150.564 132.36 151.651 133.449C152.004 133.802 152.372 134.071 152.731 134.298L176.04 105.878L169.944 98.2577Z" fill="#5AEDCD"/>
<path d="M185.202 99.8825C192.32 107.003 196.272 114.594 194.025 116.837C191.78 119.084 184.19 115.133 177.068 108.015C169.948 100.895 165.998 93.3013 168.243 91.0562C170.489 88.8111 178.08 92.7617 185.202 99.8825Z" fill="#04836E"/>
<path d="M178.464 100.71C178.16 100.955 177.764 101.083 177.345 101.038C176.022 100.894 174.909 100.434 174.13 99.7072C173.306 98.9375 172.899 97.9041 173.01 96.8692C173.205 95.0524 175.028 93.385 178.136 93.7203C179.345 93.8499 179.884 93.4612 179.902 93.2753C179.924 93.0909 179.48 92.5955 178.272 92.4644C176.949 92.3212 175.836 91.8609 175.056 91.1339C174.231 90.3642 173.823 89.3308 173.935 88.2959C174.134 86.4791 175.955 84.8117 179.06 85.1486C179.941 85.243 180.405 85.0617 180.602 84.9443C180.759 84.8483 180.821 84.7568 180.828 84.7035C180.846 84.5191 180.408 84.0237 179.197 83.8927C178.36 83.8012 177.753 83.0513 177.846 82.213C177.936 81.3763 178.685 80.7712 179.524 80.8627C182.629 81.1964 184.056 83.2129 183.859 85.0312C183.661 86.851 181.84 88.5154 178.732 88.1816C177.851 88.0856 177.391 88.2685 177.192 88.3858C177.035 88.4803 176.971 88.5733 176.965 88.6251C176.946 88.8111 177.386 89.3049 178.598 89.436C181.702 89.7713 183.129 91.7862 182.932 93.6045C182.736 95.4213 180.914 97.0887 177.808 96.7519C176.927 96.6574 176.464 96.8403 176.266 96.9561C176.107 97.0536 176.046 97.1451 176.04 97.1969C176.02 97.3813 176.461 97.8767 177.671 98.0078C178.506 98.0992 179.114 98.8506 179.021 99.6874C178.979 100.105 178.767 100.466 178.464 100.71Z" fill="#BD5BE4"/>
<path d="M196.861 114.805C199.869 113.956 201.943 115.298 202.437 117.058C202.931 118.817 201.861 121.044 198.855 121.89C197.681 122.219 197.329 122.78 197.377 122.958C197.428 123.138 198.024 123.434 199.195 123.103C202.201 122.257 204.275 123.598 204.769 125.357C205.266 127.117 204.193 129.341 201.185 130.189C200.013 130.518 199.66 131.08 199.712 131.258C199.762 131.437 200.356 131.732 201.528 131.403C202.336 131.176 203.181 131.647 203.408 132.456C203.633 133.267 203.162 134.109 202.351 134.337C199.347 135.183 197.271 133.845 196.775 132.083C196.281 130.324 197.352 128.1 200.361 127.253C201.534 126.922 201.887 126.363 201.835 126.183C201.786 126.005 201.192 125.708 200.021 126.037C197.012 126.884 194.94 125.546 194.444 123.783C193.949 122.024 195.02 119.8 198.027 118.951C199.198 118.623 199.55 118.059 199.501 117.883C199.449 117.703 198.857 117.407 197.684 117.736C196.874 117.965 196.034 117.492 195.805 116.683C195.578 115.875 196.051 115.034 196.861 114.805Z" fill="#1DE9B7"/>
<path d="M185.186 110.695C184.737 110.695 184.295 110.498 183.994 110.123C183.468 109.465 183.576 108.506 184.231 107.98C184.564 107.713 192.489 101.489 203.69 103.091C204.524 103.21 205.103 103.981 204.984 104.815C204.865 105.647 204.1 106.232 203.259 106.107C193.363 104.702 186.208 110.305 186.138 110.361C185.855 110.587 185.519 110.695 185.186 110.695Z" fill="#BD5BE4"/>
<path d="M158.899 104.354C158.755 104.354 158.607 104.333 158.46 104.29C157.654 104.048 157.197 103.199 157.439 102.393C159.166 96.6421 160.731 87.4653 158.808 85.0723C158.593 84.801 158.268 84.5343 157.525 84.5907C156.095 84.7005 156.231 87.7167 156.232 87.7472C156.296 88.587 155.665 89.3186 154.827 89.3811C153.975 89.4329 153.256 88.8141 153.193 87.9743C153.036 85.8725 153.69 81.8244 157.296 81.5516C158.906 81.4296 160.242 81.989 161.186 83.1626C164.799 87.6603 161.131 100.699 160.36 103.269C160.161 103.929 159.555 104.354 158.899 104.354Z" fill="#1DE9B7"/>
<path d="M188.995 96.7336C190.258 96.7336 191.281 95.71 191.281 94.4474C191.281 93.1847 190.258 92.1611 188.995 92.1611C187.733 92.1611 186.709 93.1847 186.709 94.4474C186.709 95.71 187.733 96.7336 188.995 96.7336Z" fill="#FE7989"/>
<path d="M153.177 110.451C154.861 110.451 156.225 109.086 156.225 107.403C156.225 105.719 154.861 104.354 153.177 104.354C151.494 104.354 150.129 105.719 150.129 107.403C150.129 109.086 151.494 110.451 153.177 110.451Z" fill="#9266CC"/>
<path d="M199.663 111.975C200.926 111.975 201.949 110.951 201.949 109.689C201.949 108.426 200.926 107.403 199.663 107.403C198.401 107.403 197.377 108.426 197.377 109.689C197.377 110.951 198.401 111.975 199.663 111.975Z" fill="#21C66D"/>
<path d="M185.946 130.265C187.209 130.265 188.233 129.241 188.233 127.978C188.233 126.716 187.209 125.692 185.946 125.692C184.684 125.692 183.66 126.716 183.66 127.978C183.66 129.241 184.684 130.265 185.946 130.265Z" fill="#D92041"/>
<path d="M192.804 89.1128C194.488 89.1128 195.852 87.748 195.852 86.0645C195.852 84.381 194.488 83.0162 192.804 83.0162C191.121 83.0162 189.756 84.381 189.756 86.0645C189.756 87.748 191.121 89.1128 192.804 89.1128Z" fill="#FFCC4D"/>
<path d="M199.663 95.2094C200.926 95.2094 201.949 94.1858 201.949 92.9232C201.949 91.6605 200.926 90.637 199.663 90.637C198.401 90.637 197.377 91.6605 197.377 92.9232C197.377 94.1858 198.401 95.2094 199.663 95.2094Z" fill="#FFCC4D"/>
<path d="M195.091 101.306C196.354 101.306 197.377 100.282 197.377 99.0197C197.377 97.7571 196.354 96.7335 195.091 96.7335C193.828 96.7335 192.805 97.7571 192.805 99.0197C192.805 100.282 193.828 101.306 195.091 101.306Z" fill="#FFCC4D"/>
<path d="M144.286 120.761C145.549 120.761 146.572 119.737 146.572 118.475C146.572 117.212 145.549 116.189 144.286 116.189C143.024 116.189 142 117.212 142 118.475C142 119.737 143.024 120.761 144.286 120.761Z" fill="#FFB814"/>
<path d="M114.723 215.04L110.003 224.14V229H107.203V224.14L102.463 215.04H105.623L108.623 221.42L111.603 215.04H114.723ZM121.658 229.18C120.591 229.18 119.631 228.947 118.778 228.48C117.924 228 117.251 227.327 116.758 226.46C116.278 225.593 116.038 224.593 116.038 223.46C116.038 222.327 116.284 221.327 116.778 220.46C117.284 219.593 117.971 218.927 118.838 218.46C119.704 217.98 120.671 217.74 121.738 217.74C122.804 217.74 123.771 217.98 124.638 218.46C125.504 218.927 126.184 219.593 126.678 220.46C127.184 221.327 127.438 222.327 127.438 223.46C127.438 224.593 127.178 225.593 126.658 226.46C126.151 227.327 125.458 228 124.578 228.48C123.711 228.947 122.738 229.18 121.658 229.18ZM121.658 226.74C122.164 226.74 122.638 226.62 123.078 226.38C123.531 226.127 123.891 225.753 124.158 225.26C124.424 224.767 124.558 224.167 124.558 223.46C124.558 222.407 124.278 221.6 123.718 221.04C123.171 220.467 122.498 220.18 121.698 220.18C120.898 220.18 120.224 220.467 119.678 221.04C119.144 221.6 118.878 222.407 118.878 223.46C118.878 224.513 119.138 225.327 119.658 225.9C120.191 226.46 120.858 226.74 121.658 226.74ZM140.352 217.92V229H137.532V227.6C137.172 228.08 136.698 228.46 136.112 228.74C135.538 229.007 134.912 229.14 134.232 229.14C133.365 229.14 132.598 228.96 131.932 228.6C131.265 228.227 130.738 227.687 130.352 226.98C129.978 226.26 129.792 225.407 129.792 224.42V217.92H132.592V224.02C132.592 224.9 132.812 225.58 133.252 226.06C133.692 226.527 134.292 226.76 135.052 226.76C135.825 226.76 136.432 226.527 136.872 226.06C137.312 225.58 137.532 224.9 137.532 224.02V217.92H140.352ZM144.074 215.04H147.014L144.854 220.08H142.934L144.074 215.04ZM152.222 219.64C152.582 219.053 153.049 218.593 153.622 218.26C154.209 217.927 154.876 217.76 155.622 217.76V220.7H154.882C154.002 220.7 153.336 220.907 152.882 221.32C152.442 221.733 152.222 222.453 152.222 223.48V229H149.422V217.92H152.222V219.64ZM168.208 223.22C168.208 223.62 168.181 223.98 168.128 224.3H160.028C160.095 225.1 160.375 225.727 160.868 226.18C161.361 226.633 161.968 226.86 162.688 226.86C163.728 226.86 164.468 226.413 164.908 225.52H167.928C167.608 226.587 166.995 227.467 166.088 228.16C165.181 228.84 164.068 229.18 162.748 229.18C161.681 229.18 160.721 228.947 159.868 228.48C159.028 228 158.368 227.327 157.888 226.46C157.421 225.593 157.188 224.593 157.188 223.46C157.188 222.313 157.421 221.307 157.888 220.44C158.355 219.573 159.008 218.907 159.848 218.44C160.688 217.973 161.655 217.74 162.748 217.74C163.801 217.74 164.741 217.967 165.568 218.42C166.408 218.873 167.055 219.52 167.508 220.36C167.975 221.187 168.208 222.14 168.208 223.22ZM165.308 222.42C165.295 221.7 165.035 221.127 164.528 220.7C164.021 220.26 163.401 220.04 162.668 220.04C161.975 220.04 161.388 220.253 160.908 220.68C160.441 221.093 160.155 221.673 160.048 222.42H165.308ZM175.097 223.42C175.097 222.3 175.317 221.307 175.757 220.44C176.211 219.573 176.818 218.907 177.578 218.44C178.351 217.973 179.211 217.74 180.158 217.74C180.984 217.74 181.704 217.907 182.318 218.24C182.944 218.573 183.444 218.993 183.818 219.5V217.92H186.638V229H183.818V227.38C183.458 227.9 182.958 228.333 182.318 228.68C181.691 229.013 180.964 229.18 180.138 229.18C179.204 229.18 178.351 228.94 177.578 228.46C176.818 227.98 176.211 227.307 175.757 226.44C175.317 225.56 175.097 224.553 175.097 223.42ZM183.818 223.46C183.818 222.78 183.684 222.2 183.418 221.72C183.151 221.227 182.791 220.853 182.338 220.6C181.884 220.333 181.398 220.2 180.878 220.2C180.358 220.2 179.878 220.327 179.438 220.58C178.998 220.833 178.638 221.207 178.358 221.7C178.091 222.18 177.958 222.753 177.958 223.42C177.958 224.087 178.091 224.673 178.358 225.18C178.638 225.673 178.998 226.053 179.438 226.32C179.891 226.587 180.371 226.72 180.878 226.72C181.398 226.72 181.884 226.593 182.338 226.34C182.791 226.073 183.151 225.7 183.418 225.22C183.684 224.727 183.818 224.14 183.818 223.46ZM192.572 214.2V229H189.772V214.2H192.572ZM198.539 214.2V229H195.739V214.2H198.539ZM211.111 229.18C210.204 229.18 209.391 229.02 208.671 228.7C207.951 228.367 207.377 227.92 206.951 227.36C206.537 226.8 206.311 226.18 206.271 225.5H209.091C209.144 225.927 209.351 226.28 209.711 226.56C210.084 226.84 210.544 226.98 211.091 226.98C211.624 226.98 212.037 226.873 212.331 226.66C212.637 226.447 212.791 226.173 212.791 225.84C212.791 225.48 212.604 225.213 212.231 225.04C211.871 224.853 211.291 224.653 210.491 224.44C209.664 224.24 208.984 224.033 208.451 223.82C207.931 223.607 207.477 223.28 207.091 222.84C206.717 222.4 206.531 221.807 206.531 221.06C206.531 220.447 206.704 219.887 207.051 219.38C207.411 218.873 207.917 218.473 208.571 218.18C209.237 217.887 210.017 217.74 210.911 217.74C212.231 217.74 213.284 218.073 214.071 218.74C214.857 219.393 215.291 220.28 215.371 221.4H212.691C212.651 220.96 212.464 220.613 212.131 220.36C211.811 220.093 211.377 219.96 210.831 219.96C210.324 219.96 209.931 220.053 209.651 220.24C209.384 220.427 209.251 220.687 209.251 221.02C209.251 221.393 209.437 221.68 209.811 221.88C210.184 222.067 210.764 222.26 211.551 222.46C212.351 222.66 213.011 222.867 213.531 223.08C214.051 223.293 214.497 223.627 214.871 224.08C215.257 224.52 215.457 225.107 215.471 225.84C215.471 226.48 215.291 227.053 214.931 227.56C214.584 228.067 214.077 228.467 213.411 228.76C212.757 229.04 211.991 229.18 211.111 229.18ZM228.469 223.22C228.469 223.62 228.442 223.98 228.389 224.3H220.289C220.356 225.1 220.636 225.727 221.129 226.18C221.622 226.633 222.229 226.86 222.949 226.86C223.989 226.86 224.729 226.413 225.169 225.52H228.189C227.869 226.587 227.256 227.467 226.349 228.16C225.442 228.84 224.329 229.18 223.009 229.18C221.942 229.18 220.982 228.947 220.129 228.48C219.289 228 218.629 227.327 218.149 226.46C217.682 225.593 217.449 224.593 217.449 223.46C217.449 222.313 217.682 221.307 218.149 220.44C218.616 219.573 219.269 218.907 220.109 218.44C220.949 217.973 221.916 217.74 223.009 217.74C224.062 217.74 225.002 217.967 225.829 218.42C226.669 218.873 227.316 219.52 227.769 220.36C228.236 221.187 228.469 222.14 228.469 223.22ZM225.569 222.42C225.556 221.7 225.296 221.127 224.789 220.7C224.282 220.26 223.662 220.04 222.929 220.04C222.236 220.04 221.649 220.253 221.169 220.68C220.702 221.093 220.416 221.673 220.309 222.42H225.569ZM234.173 220.22V225.58C234.173 225.953 234.259 226.227 234.433 226.4C234.619 226.56 234.926 226.64 235.353 226.64H236.653V229H234.893C232.533 229 231.353 227.853 231.353 225.56V220.22H230.033V217.92H231.353V215.18H234.173V217.92H236.653V220.22H234.173ZM242.687 214.8L242.367 224.46H240.007L239.667 214.8H242.687ZM241.247 229.14C240.74 229.14 240.32 228.987 239.987 228.68C239.667 228.36 239.507 227.967 239.507 227.5C239.507 227.033 239.667 226.647 239.987 226.34C240.32 226.02 240.74 225.86 241.247 225.86C241.74 225.86 242.147 226.02 242.467 226.34C242.787 226.647 242.947 227.033 242.947 227.5C242.947 227.967 242.787 228.36 242.467 228.68C242.147 228.987 241.74 229.14 241.247 229.14Z" fill="#091555"/>
<defs>
<clipPath id="clip0_2605_13886">
<rect width="271" height="147" fill="white" transform="translate(38 41)"/>
</clipPath>
</defs>
</svg>
