<svg xmlns:xlink="http://www.w3.org/1999/xlink" xmlns="http://www.w3.org/2000/svg" viewBox="0 0 24 24" fill="none" class="dig-UIIcon dig-UIIcon--standard" width="24" height="24" focusable="false"><path d="M12 10a1.857 1.857 0 0 0-2 2 1.857 1.857 0 0 0 2 2 1.857 1.857 0 0 0 2-2 1.857 1.857 0 0 0-2-2Zm6 0a1.857 1.857 0 0 0-2 2 1.858 1.858 0 0 0 2 2 1.857 1.857 0 0 0 2-2 1.857 1.857 0 0 0-2-2ZM6 10a1.857 1.857 0 0 0-2 2 1.857 1.857 0 0 0 2 2 1.856 1.856 0 0 0 2-2 1.857 1.857 0 0 0-2-2Z" fill="#1E1919"></path></svg>