<svg xmlns:xlink="http://www.w3.org/1999/xlink" xmlns="http://www.w3.org/2000/svg" width="160" height="160" viewBox="0 0 160 160" focusable="false" class="mc-icon mc-icon-template-content mc-icon-template-content--folder_dropbox-large" role="img"><g fill="none" fill-rule="evenodd"><path d="M74.955 53h50.04A3.002 3.002 0 0 1 128 56.007v58.988a4.008 4.008 0 0 1-4.003 4.005H36.003A4.002 4.002 0 0 1 32 114.995V45.99c0-2.206 1.79-3.99 3.997-3.99h26.002c1.666 0 3.667 1.166 4.49 2.605l3.341 5.848s1.281 2.544 5.12 2.544l.005.003z" fill="#71B9F4"></path><path d="M74.955 52h50.04A3.002 3.002 0 0 1 128 55.007v58.988a4.008 4.008 0 0 1-4.003 4.005H36.003A4.002 4.002 0 0 1 32 113.995V44.99c0-2.206 1.79-3.99 3.997-3.99h26.002c1.666 0 3.667 1.166 4.49 2.605l3.341 5.848s1.281 2.544 5.12 2.544l.005.003z" fill="#92CEFF"></path><path d="M90.066 82.743l9.934 6.35-10.004 6.394L80 89.097l-9.996 6.39L60 89.093l9.934-6.35L60 76.394 70.004 70 80 76.39 89.996 70 100 76.394l-9.934 6.35zm-.14 0L80 76.4l-9.926 6.344L80 89.088l9.926-6.345zM70.068 97.606l10.004-6.394 10.004 6.394L80.072 104l-10.004-6.394z" fill="#3BA0F3"></path></g></svg>