<svg xmlns:xlink="http://www.w3.org/1999/xlink" xmlns="http://www.w3.org/2000/svg" width="32" height="32" viewBox="0 0 40 40" focusable="false" class="mc-icon mc-icon-template-content mc-icon-template-content--pdf-small brws-file-name-cell-icon" role="img"><defs><rect id="145-mc-content-pdf-small-b" x="8" y="5" width="24" height="30" rx="1.5"></rect><filter x="-2.1%" y="-1.7%" width="104.2%" height="106.7%" filterUnits="objectBoundingBox" id="145-mc-content-pdf-small-a"><feOffset dy="1" in="SourceAlpha" result="shadowOffsetOuter1"></feOffset><feColorMatrix values="0 0 0 0 0.858859196 0 0 0 0 0.871765907 0 0 0 0 0.884672619 0 0 0 1 0" in="shadowOffsetOuter1"></feColorMatrix></filter><rect id="145-mc-content-pdf-small-b" x="8" y="5" width="24" height="30" rx="1.5"></rect><rect id="145-mc-content-pdf-small-b" x="8" y="5" width="24" height="30" rx="1.5"></rect></defs><g fill="none" fill-rule="evenodd"><g fill="none"><use fill="#000" filter="url(#145-mc-content-pdf-small-a)" xlink:href="#145-mc-content-pdf-small-b"></use><use fill="#F7F9FA" xlink:href="#145-mc-content-pdf-small-b"></use></g><path d="M14.768 22.003h-.704V24h-1.312v-6.12h2.128c1.328 0 2.173.576 2.173 1.992 0 1.488-.917 2.131-2.285 2.131zm-.704-1.006h.792c.68 0 1.072-.413 1.072-1.125 0-.752-.392-.887-1.056-.887h-.808v2.012zM18.011 24v-6.12H20.1c1.808 0 2.576 1.256 2.576 3.047 0 1.791-.752 3.073-2.544 3.073h-2.12zm1.244-1.131h.82c1.056 0 1.274-.817 1.274-1.942s-.266-1.942-1.274-1.942h-.86l.04 3.884zm6.019-1.155V24h-1.252v-6.12h3.741v1.105h-2.49v1.745h2.346v.984h-2.345z" fill="#F25123"></path></g></svg>