<svg xmlns:xlink="http://www.w3.org/1999/xlink" xmlns="http://www.w3.org/2000/svg" width="32" height="32" viewBox="0 0 40 40" focusable="false" class="mc-icon mc-icon-template-content mc-icon-template-content--docx-small brws-file-name-cell-icon" role="img"><path fill-rule="evenodd" clip-rule="evenodd" d="M8 6.5A1.5 1.5 0 0 1 9.5 5h21A1.5 1.5 0 0 1 32 6.5v27a1.5 1.5 0 0 1-1.5 1.5h-21A1.5 1.5 0 0 1 8 33.5v-27z" fill="#F7F9FA" filter="url(#5-mc-content-docx-small-a)"></path><path d="M13 14l8-1v14l-8-1V14z" fill="#2B579A"></path><path d="M20 14h6a1 1 0 0 1 1 1v9a1 1 0 0 1-1 1h-6V14z" fill="#2B579A"></path><path fill="#FFFFFF" d="M21 15h5v9h-5z"></path><path fill="#2B579A" d="M20 23h5v-1h-5zM20 17h5v-1h-5zM20 19h5v-1h-5zM20 21h5v-1h-5z"></path><path d="M14 17l1 5h1l1-3.5 1 3.5h1l1-5h-1l-.5 3.5-1-3.5h-1l-1 3.5L15 17h-1z" fill="#FFFFFF"></path><defs><filter id="5-mc-content-docx-small-a" x="8" y="5" width="24" height="31" filterUnits="userSpaceOnUse" color-interpolation-filters="sRGB"><feFlood flood-opacity="0" result="BackgroundImageFix"></feFlood><feColorMatrix in="SourceAlpha" values="0 0 0 0 0 0 0 0 0 0 0 0 0 0 0 0 0 0 127 0"></feColorMatrix><feOffset dy="1"></feOffset><feColorMatrix values="0 0 0 0 0.858859 0 0 0 0 0.871766 0 0 0 0 0.884673 0 0 0 1 0"></feColorMatrix><feBlend in2="BackgroundImageFix" result="effect1_dropShadow"></feBlend><feBlend in="SourceGraphic" in2="effect1_dropShadow" result="shape"></feBlend></filter></defs></svg>