<svg xmlns:xlink="http://www.w3.org/1999/xlink" xmlns="http://www.w3.org/2000/svg" width="32" height="32" viewBox="0 0 40 40" focusable="false" class="mc-icon mc-icon-template-content mc-icon-template-content--link-small brws-file-name-cell-icon" role="img"><defs><rect id="6-mc-content-link-small-b" x="8" y="5" width="24" height="30" rx="1.5"></rect><filter x="-2.1%" y="-1.7%" width="104.2%" height="106.7%" filterUnits="objectBoundingBox" id="6-mc-content-link-small-a"><feOffset dy="1" in="SourceAlpha" result="shadowOffsetOuter1"></feOffset><feColorMatrix values="0 0 0 0 0.858859196 0 0 0 0 0.871765907 0 0 0 0 0.884672619 0 0 0 1 0" in="shadowOffsetOuter1"></feColorMatrix></filter><rect id="6-mc-content-link-small-b" x="8" y="5" width="24" height="30" rx="1.5"></rect><rect id="6-mc-content-link-small-b" x="8" y="5" width="24" height="30" rx="1.5"></rect></defs><g fill="none" fill-rule="evenodd"><g fill="none"><use fill="#000" filter="url(#6-mc-content-link-small-a)" xlink:href="#6-mc-content-link-small-b"></use><use fill="#F7F9FA" xlink:href="#6-mc-content-link-small-b"></use></g><path d="M13 20c0-1.657 1.347-3 2.997-3h3.006A3 3 0 0 1 22 20v3h-6.003A3 3 0 0 1 13 20zm1.5 0c0 .834.672 1.5 1.5 1.5h1.5V23H22v-2.5h-1.5v-.505c0-.818-.67-1.495-1.499-1.495H16c-.834 0-1.499.672-1.499 1.5z" fill="#637282"></path><path d="M27 20c0 1.657-1.347 3-2.997 3h-3.006A3 3 0 0 1 18 20v-3h6.003A3 3 0 0 1 27 20zm-1.5 0c0-.834-.672-1.5-1.5-1.5h-1.5V17H18v2.5h1.5v.505c0 .818.67 1.495 1.499 1.495H24c.834 0 1.499-.672 1.499-1.5z" fill="#637282"></path></g></svg>