<svg xmlns:xlink="http://www.w3.org/1999/xlink" xmlns="http://www.w3.org/2000/svg" viewBox="0 0 24 24" fill="none" class="dig-UIIcon dig-UIIcon--standard" width="24" height="24" focusable="false"><path d="M11.674 16.5H5.75a.75.75 0 0 1-.75-.75V5.5h3.073a.745.745 0 0 1 .67.415L9.536 7.5H18.5v2.174c.527.12 1.033.32 1.5.592V6h-9.537l-.377-.756A2.237 2.237 0 0 0 8.072 4H3.5v11.75A2.25 2.25 0 0 0 5.75 18h6.516a5.385 5.385 0 0 1-.592-1.5Z" fill="#524A3E" fill-opacity="0.82"></path><path d="M17 11c-2.379 0-4 1.45-4 4s1.621 4 4 4 4-1.45 4-4-1.621-4-4-4Zm.5 4.5H15v-1h1.5v-2h1v3Z" fill="#524A3E" fill-opacity="0.82"></path></svg>