<svg xmlns:xlink="http://www.w3.org/1999/xlink" xmlns="http://www.w3.org/2000/svg" viewBox="0 0 24 24" fill="none" class="dig-UIIcon dig-UIIcon--standard" width="24" height="24" focusable="false"><path d="M11.75 4C6.535 4 4 6.535 4 11.75s2.535 7.75 7.75 7.75 7.75-2.535 7.75-7.75S16.965 4 11.75 4Zm0 14c-4.322 0-6.25-1.927-6.25-6.25 0-4.322 1.928-6.25 6.25-6.25 4.323 0 6.25 1.928 6.25 6.25 0 4.323-1.927 6.25-6.25 6.25Z" fill="#1E1919"></path><path d="M11.75 14.5a.75.75 0 1 0 .75.75.71.71 0 0 0-.75-.75Zm.007-7h-.007A2.76 2.76 0 0 0 9 10.26v.24h1.5v-.24A1.256 1.256 0 0 1 11.75 9c.866 0 1.25.386 1.25 1.25 0 .887-.443 1.074-.588 1.136A2.244 2.244 0 0 0 11 13.428v.166a3.01 3.01 0 0 1 1.5 0v-.166a.75.75 0 0 1 .496-.66A2.532 2.532 0 0 0 14.5 10.25a2.55 2.55 0 0 0-2.743-2.75Z" fill="#1E1919"></path></svg>