<svg xmlns:xlink="http://www.w3.org/1999/xlink" xmlns="http://www.w3.org/2000/svg" viewBox="0 0 218 64" fill="none" class="dig-WordmarkLogo" height="64" focusable="false" role="presentation" width="218" ><path d="M25.1797 13L13.8369 20.125L25.1797 27.25L36.5244 20.125L47.8672 27.25L59.21 20.125L47.8672 13L36.5244 20.125L25.1797 13Z" fill="#0061FE"></path><path d="M25.1797 41.5001L13.8369 34.3751L25.1797 27.25L36.5244 34.3751L25.1797 41.5001Z" fill="#0061FE"></path><path d="M36.5244 34.3751L47.8672 27.25L59.21 34.3751L47.8672 41.5001L36.5244 34.3751Z" fill="#0061FE"></path><path d="M36.5245 51L25.1797 43.875L36.5245 36.75L47.8672 43.875L36.5245 51Z" fill="#0061FE"></path><path d="M67.498 20.1067H76.3662C82.0374 20.1067 86.6688 23.3975 86.6688 30.863V32.4584C86.6688 39.9517 82.2987 43.3426 76.4996 43.3426H67.498V20.1067ZM72.452 24.3147V39.079H76.2661C79.4575 39.079 81.6426 36.9611 81.6426 32.3028V31.0965C81.6426 26.4382 79.3964 24.3203 76.0993 24.3203H72.452V24.3147ZM89.3042 24.5426H93.2463L93.8634 28.9119C94.614 25.9156 96.5378 24.3814 100.024 24.3814H101.23V29.3677H99.2121C95.17 29.3677 94.1915 30.7685 94.1915 34.7431V43.3482H89.3042V24.5426ZM102.276 34.3484V33.8259C102.276 27.5055 106.318 24.1146 111.794 24.1146C117.399 24.1146 121.28 27.5666 121.28 33.8259V34.3484C121.28 40.541 117.465 43.8318 111.794 43.8318C105.734 43.8318 102.276 40.541 102.276 34.3484ZM116.326 34.2817V33.8259C116.326 30.3071 114.563 28.2559 111.794 28.2559C109.059 28.2559 107.23 30.1793 107.23 33.8259V34.2817C107.23 37.6726 108.959 39.5626 111.761 39.5626C114.569 39.5626 116.326 37.706 116.326 34.2817ZM123.854 24.5426H127.963L128.452 28.1281C129.464 25.7155 131.549 24.1201 134.646 24.1201C139.438 24.1201 142.569 27.5722 142.569 33.8981V34.4207C142.569 40.6132 139.083 43.8374 134.646 43.8374C131.649 43.8374 129.658 42.5032 128.647 40.3186V49.802H123.854V24.5426ZM137.609 34.3151V33.8926C137.609 30.1459 135.686 28.2893 133.111 28.2893C130.376 28.2893 128.546 30.3738 128.546 33.8592V34.2206C128.546 37.5447 130.309 39.6293 133.011 39.6293C135.819 39.6293 137.609 37.7727 137.609 34.3151ZM149.769 39.9239L149.38 43.3482H145.143V18.25H149.936V27.8946C150.981 25.4487 153.066 24.1146 156.029 24.1146C160.494 24.1479 163.819 27.2442 163.819 33.4979V34.0538C163.819 40.3131 160.689 43.8318 155.896 43.8318C152.799 43.8318 150.781 42.3365 149.769 39.9239ZM158.898 34.0538V33.598C158.898 30.1459 157.008 28.2559 154.4 28.2559C151.693 28.2559 149.836 30.4405 149.836 33.6647V34.0538C149.836 37.5725 151.626 39.596 154.334 39.596C157.169 39.596 158.898 37.7727 158.898 34.0538ZM166.004 34.3484V33.8259C166.004 27.5055 170.013 24.1146 175.489 24.1146C181.094 24.1146 185.008 27.5666 185.008 33.8259V34.3484C185.008 40.541 181.16 43.8318 175.489 43.8318C169.423 43.8318 166.004 40.541 166.004 34.3484ZM180.048 34.2817V33.8259C180.048 30.3071 178.286 28.2559 175.517 28.2559C172.782 28.2559 170.952 30.1793 170.952 33.8259V34.2817C170.952 37.6726 172.682 39.5626 175.484 39.5626C178.325 39.5626 180.048 37.706 180.048 34.2817ZM191.396 33.598L184.813 24.5371H190.451L194.265 30.1737L198.113 24.5371H203.717L197.034 33.5646L204.073 43.3426H198.53L194.193 37.1167L189.99 43.3426H184.252L191.396 33.598Z" fill="#1E1919"></path></svg>