<svg xmlns:xlink="http://www.w3.org/1999/xlink" xmlns="http://www.w3.org/2000/svg" width="20" height="20" viewBox="0 0 40 40" focusable="false" class="mc-icon mc-icon-template-content mc-icon-template-content--unknown-small" role="img" aria-hidden="true"><defs><rect id="156-mc-content-unknown-small-b" x="8" y="5" width="24" height="30" rx="1.5"></rect><filter x="-2.1%" y="-1.7%" width="104.2%" height="106.7%" filterUnits="objectBoundingBox" id="156-mc-content-unknown-small-a"><feOffset dy="1" in="SourceAlpha" result="shadowOffsetOuter1"></feOffset><feColorMatrix values="0 0 0 0 0.858859196 0 0 0 0 0.871765907 0 0 0 0 0.884672619 0 0 0 1 0" in="shadowOffsetOuter1"></feColorMatrix></filter><rect id="156-mc-content-unknown-small-b" x="8" y="5" width="24" height="30" rx="1.5"></rect><rect id="156-mc-content-unknown-small-b" x="8" y="5" width="24" height="30" rx="1.5"></rect></defs><g fill="none" fill-rule="evenodd"><g fill="none"><use fill="#000" filter="url(#156-mc-content-unknown-small-a)" xlink:href="#156-mc-content-unknown-small-b"></use><use fill="#F7F9FA" xlink:href="#156-mc-content-unknown-small-b"></use><rect fill="#D8D8D8" x="16" y="26" width="8" height="1" rx=".5"></rect><g fill="none"><path d="M17 22h6v-3a3 3 0 1 0-6 0v3z" stroke="#637282" fill="none"></path><path d="M14.64 20.36c.751-.751 2.227-1.36 3.275-1.36h4.176c1.054 0 2.516.607 3.269 1.36l.929.929c.393.393.273.774-.277.852l-4.118.588c-1.046.15-2.752.148-3.788 0l-4.118-.588c-.546-.078-.667-.462-.277-.852l.93-.93z" fill="#637282"></path></g></g></g></svg>